<?xml version="1.0" encoding="UTF-8" standalone="no"?>
<!-- Filename: 89c3b266c57cf30d571127be579f86d794d3d679ffd13856e2234e8c91cd593a.svg -->
<!-- Created with https://svgstud.io -->
<svg
  version="1.1"
  xmlns="http://www.w3.org/2000/svg"
  xmlns:xlink="http://www.w3.org/1999/xlink"
  xmlns:svg="http://www.w3.org/2000/svg"
  xmlns:rdf="http://www.w3.org/1999/02/22-rdf-syntax-ns#"
  xmlns:cc="http://creativecommons.org/ns#"
  xmlns:dc="http://purl.org/dc/elements/1.1/"
  viewBox="0 0 768 768"
  width="768"
  height="768"
  role="img"
  aria-labelledby="titleID descID"
>
  <title id="titleID">create a 2d snake</title>
  <desc id="descID">AI-generated SVG illustration: create a 2d snake, created on https://svgstud.io</desc>

  <rect width="100%" height="100%" fill="white" />

  <metadata>
    Created by https://svgstud.io and licensed under CC-BY-SA 4.0 license. Please attribute https://svgstud.io
  </metadata>
  <metadata>
    create a 2d snake
  </metadata>
  <metadata>
    7
  </metadata>
  <metadata>
    <rdf:RDF
      xmlns:rdf="http://www.w3.org/1999/02/22-rdf-syntax-ns#"
      xmlns:cc="http://creativecommons.org/ns#"
      xmlns:dc="http://purl.org/dc/elements/1.1/"
    >
      <cc:Work rdf:about="">
        <cc:license rdf:resource="http://creativecommons.org/licenses/by-sa/4.0/" />
        <dc:creator>
          <cc:Agent>
            <dc:title>https://svgstud.io</dc:title>
          </cc:Agent>
        </dc:creator>
      </cc:Work>
      <cc:License rdf:about="http://creativecommons.org/licenses/by-sa/4.0/">
        <cc:permits rdf:resource="http://creativecommons.org/ns#Reproduction" />
        <cc:permits rdf:resource="http://creativecommons.org/ns#Distribution" />
        <cc:requires rdf:resource="http://creativecommons.org/ns#Notice" />
        <cc:requires rdf:resource="http://creativecommons.org/ns#Attribution" />
        <cc:permits rdf:resource="http://creativecommons.org/ns#DerivativeWorks" />
        <cc:requires rdf:resource="http://creativecommons.org/ns#ShareAlike" />
      </cc:License>
    </rdf:RDF>
  </metadata>
  <metadata id="uid">89c3b266c57cf30d571127be579f86d794d3d679ffd13856e2234e8c91cd593a</metadata>

  <path stroke="none" fill="black" fill-rule="evenodd" d="M417.50,744.47C397.15,744.68 374.31,744.45 366.74,743.95C359.17,743.45 345.22,741.92 335.74,740.55C326.26,739.17 310.60,736.48 300.94,734.57C291.27,732.67 277.10,729.09 269.44,726.63C261.77,724.17 251.06,720.55 245.63,718.58C240.20,716.61 228.95,711.60 220.63,707.45C212.32,703.30 200.52,696.57 194.42,692.51C188.32,688.45 178.96,681.24 173.62,676.48C168.28,671.73 160.89,664.29 157.21,659.95C153.52,655.62 148.10,648.26 145.17,643.60C142.24,638.94 137.58,629.59 134.82,622.81C132.06,616.04 128.64,606.23 127.22,601.00C124.92,592.51 124.64,589.63 124.61,574.00C124.58,559.26 124.92,555.13 126.76,547.78C127.96,542.99 131.03,533.76 133.57,527.28C136.11,520.80 140.20,511.68 142.66,507.01C145.12,502.34 149.55,494.91 152.50,490.51C155.45,486.10 160.76,478.90 164.30,474.50C167.84,470.10 174.18,463.24 178.37,459.25C182.57,455.26 186.73,452.00 187.62,452.00C188.86,452.00 189.09,452.63 188.61,454.75C188.27,456.26 187.71,458.96 187.36,460.75C186.74,464.00 186.74,464.00 191.12,462.46C193.53,461.60 196.83,461.04 198.46,461.20C201.13,461.47 201.73,460.93 204.78,455.50C206.63,452.20 211.02,445.23 214.53,440.00C218.05,434.77 223.01,428.13 225.56,425.23C228.11,422.33 237.11,413.70 245.58,406.06C254.04,398.41 265.81,388.65 271.73,384.37C277.65,380.09 285.65,374.03 289.50,370.90C293.35,367.77 297.82,363.82 299.43,362.12C301.04,360.41 302.09,358.76 301.78,358.44C301.46,358.13 298.79,359.07 295.85,360.55C292.91,362.02 286.68,365.52 282.00,368.32C277.32,371.12 267.88,377.42 261.00,382.32C254.12,387.22 245.37,393.76 241.55,396.86C237.72,399.96 227.92,408.91 219.77,416.75C211.62,424.59 204.50,431.00 203.94,431.00C203.38,431.00 201.47,432.00 199.71,433.23C197.94,434.46 195.27,436.56 193.76,437.91C192.25,439.25 190.75,440.08 190.42,439.75C190.09,439.42 191.61,436.53 193.79,433.33C195.97,430.12 202.65,422.36 208.63,416.08C214.61,409.79 224.68,400.11 231.00,394.56C237.32,389.00 246.10,381.73 250.50,378.40C254.90,375.07 265.03,368.05 273.02,362.81C281.00,357.57 294.27,349.34 302.50,344.52C310.73,339.70 318.02,335.02 318.71,334.12C319.40,333.23 321.32,329.01 322.99,324.75C324.66,320.48 326.69,314.43 327.51,311.30C328.49,307.55 328.66,305.26 328.01,304.61C327.36,303.96 322.65,304.78 314.26,306.99C303.01,309.96 299.63,310.41 285.72,310.78C272.76,311.13 269.02,310.91 264.76,309.52C261.91,308.58 257.76,306.53 255.54,304.95C252.81,303.01 248.53,301.44 242.31,300.10C237.26,299.01 231.79,297.42 230.15,296.58C228.51,295.73 226.35,293.95 225.34,292.62C224.33,291.29 222.80,288.91 221.94,287.34C220.74,285.16 218.96,284.07 214.39,282.70C211.10,281.71 206.18,279.24 203.46,277.20C200.09,274.69 197.60,271.70 195.69,267.88C193.93,264.36 191.90,257.25 190.28,248.88C188.57,240.11 187.65,231.88 187.59,225.00C187.51,215.52 187.77,213.92 190.28,208.50C192.55,203.61 195.87,199.76 208.28,187.65C216.65,179.49 228.03,168.68 233.57,163.64C239.10,158.59 249.23,150.24 256.07,145.06C262.90,139.89 271.54,133.21 275.25,130.22C279.21,127.02 283.81,122.04 286.41,118.14C288.84,114.49 292.15,108.12 293.77,104.00C295.40,99.87 297.51,94.03 298.48,91.00C299.44,87.97 301.77,82.69 303.66,79.26C305.54,75.83 309.62,70.28 312.72,66.94C315.82,63.59 322.58,57.91 327.74,54.31C332.90,50.71 343.51,44.54 351.31,40.59C359.12,36.65 369.32,32.20 374.00,30.71C378.68,29.22 387.68,26.76 394.00,25.26C404.88,22.68 406.80,22.53 429.50,22.54C449.88,22.56 455.37,22.89 465.89,24.78C472.71,26.00 484.63,29.11 492.39,31.69C500.15,34.27 511.92,39.12 518.54,42.47C525.16,45.82 534.61,51.45 539.54,54.99C544.47,58.53 553.23,66.18 559.00,71.98C564.77,77.78 572.25,86.57 575.62,91.51C578.99,96.46 583.33,103.67 585.28,107.53C587.22,111.40 590.20,119.05 591.90,124.54C593.61,130.02 595.68,138.03 596.50,142.34C597.33,146.65 598.00,155.48 598.00,161.96C598.00,168.44 597.30,177.73 596.45,182.62C595.60,187.50 593.33,196.22 591.40,202.00C589.47,207.78 586.05,215.88 583.79,220.00C581.54,224.12 577.23,230.88 574.22,235.00C571.21,239.12 563.52,247.68 557.12,254.01C550.73,260.34 541.90,268.42 537.50,271.96C533.10,275.51 524.71,282.59 518.85,287.70C512.99,292.82 504.03,301.39 498.95,306.75C493.86,312.11 487.28,319.70 484.33,323.62C481.37,327.53 476.94,334.27 474.48,338.60C472.01,342.92 470.00,346.80 470.00,347.23C470.00,347.65 472.14,348.00 474.75,348.01C477.36,348.01 482.43,348.49 486.00,349.07C489.57,349.64 492.95,350.57 493.50,351.14C494.17,351.82 493.19,353.28 490.50,355.60C488.30,357.49 483.80,360.38 480.50,362.02C476.51,364.00 472.32,365.19 468.00,365.56C464.43,365.87 460.53,366.32 459.35,366.56C458.16,366.80 455.65,369.13 453.77,371.74C451.89,374.36 445.32,382.31 439.17,389.41C433.02,396.51 428.17,402.50 428.40,402.73C428.62,402.96 434.37,402.21 441.15,401.08C447.94,399.94 461.60,398.11 471.50,397.00C481.40,395.90 494.61,394.30 500.85,393.45C507.10,392.60 515.65,390.81 519.85,389.49C524.06,388.16 529.62,385.73 532.20,384.09C534.79,382.45 538.16,379.19 539.70,376.86C542.50,372.60 542.50,372.60 542.22,353.38C542.02,339.47 542.34,332.22 543.40,327.17C544.20,323.33 546.39,316.88 548.28,312.84C550.16,308.80 553.56,303.02 555.84,300.00C558.11,296.98 563.02,291.88 566.74,288.68C570.53,285.42 577.45,280.92 582.50,278.44C587.45,276.00 594.20,273.33 597.50,272.49C600.80,271.66 607.39,270.53 612.15,269.99C617.98,269.32 624.19,269.34 631.15,270.05C636.84,270.63 644.14,271.78 647.37,272.61C650.60,273.44 656.68,275.48 660.87,277.14C665.07,278.80 673.59,282.87 679.82,286.18C687.96,290.51 690.98,292.61 690.58,293.66C690.27,294.46 690.67,296.68 691.47,298.59C692.50,301.04 694.05,302.54 696.71,303.65C698.80,304.52 701.98,306.75 703.80,308.61C706.08,310.95 708.01,312.00 710.05,312.00C711.67,312.00 712.99,311.66 712.97,311.25C712.96,310.84 710.47,308.48 707.44,306.00C704.41,303.52 700.48,300.21 698.71,298.63C696.50,296.65 696.28,296.25 698.00,297.35C699.38,298.22 702.98,300.61 706.00,302.65C709.02,304.69 713.41,307.91 715.75,309.80C718.09,311.69 720.00,313.78 720.00,314.43C720.00,315.08 719.36,316.49 718.58,317.56C717.29,319.32 716.11,319.47 705.58,319.16C695.67,318.87 693.92,319.05 693.39,320.43C693.05,321.31 693.36,323.49 694.07,325.27C694.79,327.05 696.42,330.18 697.69,332.23C698.96,334.28 700.00,336.64 700.00,337.48C700.00,338.32 699.38,339.00 698.61,339.00C697.85,339.00 691.94,337.18 685.48,334.95C679.03,332.73 671.67,329.84 669.12,328.54C666.58,327.25 660.72,323.19 656.09,319.54C651.47,315.88 646.52,312.29 645.09,311.57C643.67,310.84 640.12,309.74 637.20,309.12C634.29,308.50 629.04,308.00 625.54,308.00C622.04,308.00 616.51,308.83 613.24,309.85C609.97,310.86 605.22,313.13 602.68,314.88C600.14,316.62 596.94,319.52 595.58,321.31C594.22,323.09 592.19,326.57 591.07,329.03C589.85,331.72 589.03,335.69 589.01,339.00C588.98,342.02 589.51,350.66 590.17,358.19C591.24,370.21 591.18,373.08 589.68,381.69C588.48,388.64 586.84,393.83 584.05,399.50C581.89,403.90 577.73,410.31 574.81,413.75C571.89,417.19 566.49,422.38 562.80,425.28C559.12,428.18 552.60,432.41 548.30,434.69C544.01,436.96 536.54,440.20 531.70,441.90C526.85,443.59 513.35,446.98 501.70,449.42C490.04,451.86 473.52,455.46 465.00,457.43C456.48,459.39 446.49,461.91 442.82,463.03C439.14,464.15 435.09,465.92 433.82,466.95C432.54,467.98 431.82,469.15 432.20,469.53C432.59,469.92 435.96,469.52 439.70,468.64C443.44,467.76 449.95,466.59 454.16,466.04C458.37,465.49 470.30,464.53 480.66,463.91C491.55,463.25 507.94,463.03 519.50,463.40C530.50,463.75 547.38,464.95 557.00,466.07C566.62,467.18 580.02,469.21 586.76,470.56C593.50,471.91 603.85,474.62 609.76,476.57C615.67,478.53 626.80,483.22 634.50,487.00C642.20,490.77 652.10,496.57 656.50,499.88C660.90,503.20 667.54,509.41 671.25,513.70C674.96,517.99 679.55,524.65 681.45,528.50C683.35,532.35 685.62,538.20 686.49,541.50C687.36,544.80 688.33,550.42 688.65,554.00C689.07,558.64 690.35,562.82 693.13,568.64C695.27,573.12 697.92,580.27 699.01,584.55C700.11,588.82 701.00,595.06 701.00,598.41C701.00,601.76 700.50,608.55 699.90,613.50C699.29,618.45 697.67,626.10 696.28,630.50C694.90,634.90 692.42,641.20 690.77,644.50C689.12,647.80 685.82,653.44 683.45,657.03C681.08,660.63 675.17,667.64 670.32,672.61C665.47,677.59 657.54,684.59 652.70,688.18C647.87,691.76 639.75,696.97 634.66,699.76C629.58,702.54 620.71,706.94 614.96,709.53C609.21,712.12 599.10,716.01 592.50,718.16C585.90,720.32 574.42,723.61 567.00,725.47C559.58,727.34 546.52,730.22 538.00,731.87C529.48,733.52 515.00,736.03 505.83,737.45C496.66,738.87 481.36,740.94 471.83,742.06C458.32,743.64 446.35,744.17 417.50,744.47zM391.83,720.31C392.56,720.14 396.12,720.00 399.73,720.00C406.30,720.00 406.30,720.00 405.65,711.62C405.18,705.47 405.34,702.98 406.25,702.25C406.94,701.71 408.85,700.82 410.50,700.27C413.50,699.27 413.50,699.27 409.29,698.11C406.98,697.47 404.81,696.51 404.48,695.97C404.15,695.43 404.92,694.61 406.19,694.13C407.46,693.65 411.57,692.94 415.31,692.55C419.98,692.05 422.31,691.35 422.71,690.31C423.03,689.48 422.80,688.50 422.21,688.13C421.61,687.76 410.18,686.65 396.81,685.66C383.44,684.67 363.73,682.77 353.00,681.43C342.27,680.08 324.34,677.31 313.14,675.27C292.78,671.55 292.78,671.55 290.42,674.29C289.13,675.80 287.55,678.94 286.93,681.27C286.30,683.59 286.06,687.75 286.39,690.50C286.72,693.25 287.47,697.21 288.06,699.30C288.76,701.81 290.17,703.74 292.20,704.97C293.89,706.00 299.15,707.76 303.89,708.89C308.62,710.02 322.85,712.83 335.50,715.14C353.34,718.39 362.09,719.48 374.50,719.98C383.30,720.33 391.10,720.48 391.83,720.31zM450.18,716.37C454.76,716.13 465.25,715.45 473.50,714.86C481.75,714.27 490.67,713.65 493.33,713.48C495.98,713.32 498.40,712.93 498.70,712.63C499.00,712.33 498.73,709.26 498.10,705.79C497.48,702.33 496.81,698.38 496.61,697.00C496.41,695.62 496.65,693.74 497.13,692.82C497.78,691.56 497.50,690.97 496.02,690.51C494.78,690.11 493.64,688.37 492.95,685.81C491.85,681.73 491.85,681.73 483.18,682.29C478.40,682.60 468.43,683.34 461.00,683.94C453.57,684.54 444.24,685.28 440.25,685.60C433.38,686.14 433.00,686.30 433.00,688.62C433.00,689.96 434.08,693.63 435.40,696.78C436.73,699.93 438.56,705.20 439.47,708.50C440.39,711.80 441.30,715.02 441.50,715.66C441.76,716.47 444.41,716.68 450.18,716.37zM568.80,705.36C570.28,705.01 576.90,703.24 583.50,701.45C590.10,699.65 597.75,697.29 600.50,696.21C605.18,694.37 605.52,694.00 605.83,690.37C606.02,688.24 605.66,682.40 605.03,677.40C604.02,669.35 604.09,667.88 605.61,664.69C607.10,661.58 607.14,660.87 605.91,659.38C605.14,658.43 602.50,656.39 600.05,654.83C597.61,653.27 594.68,652.00 593.55,652.01C592.42,652.01 581.47,655.37 569.22,659.47C556.96,663.57 546.49,667.20 545.95,667.53C545.41,667.87 547.48,670.92 550.56,674.32C554.14,678.26 557.72,683.76 560.44,689.50C562.80,694.45 565.03,700.19 565.41,702.26C566.04,705.73 566.30,705.97 568.80,705.36zM254.50,695.61C255.05,695.43 255.42,694.09 255.31,692.64C255.21,691.15 255.64,690.01 256.31,690.02C256.97,690.03 260.88,690.92 265.00,692.00C269.12,693.08 273.25,693.97 274.17,693.98C275.25,693.99 276.09,692.85 276.54,690.75C276.93,688.96 278.38,685.25 279.77,682.50C281.15,679.75 283.34,676.11 284.64,674.41C285.94,672.70 287.00,670.81 287.00,670.19C287.00,669.58 285.09,668.58 282.75,667.97C280.41,667.37 273.32,665.13 267.00,663.00C260.67,660.87 250.45,656.89 244.28,654.17C238.11,651.44 229.86,647.36 225.94,645.10C222.03,642.85 218.00,641.00 216.98,641.00C215.97,641.00 214.23,642.16 213.11,643.58C212.00,645.00 210.16,648.62 209.04,651.62C207.92,654.62 207.00,658.92 207.00,661.17C207.00,663.42 207.53,667.12 208.18,669.38C208.82,671.65 209.81,674.10 210.37,674.84C210.94,675.58 216.82,678.91 223.45,682.24C230.08,685.58 239.55,690.02 244.50,692.12C249.45,694.22 253.95,695.79 254.50,695.61zM375.50,674.87C384.30,674.95 396.90,674.55 403.50,673.99C410.10,673.43 420.29,672.71 426.15,672.39C436.79,671.82 436.79,671.82 437.46,666.48C437.83,663.54 438.66,660.71 439.31,660.19C439.97,659.67 443.52,658.93 447.20,658.55C453.91,657.85 453.91,657.85 457.18,664.56C460.45,671.27 460.45,671.27 476.47,670.65C485.29,670.31 495.65,669.45 499.49,668.74C506.24,667.50 506.57,667.31 508.87,663.14C510.18,660.76 512.59,658.00 514.23,657.00C515.87,656.01 522.46,653.77 528.86,652.03C536.51,649.96 541.10,648.18 542.25,646.83C543.21,645.70 544.00,644.08 544.00,643.22C544.00,642.36 546.24,638.59 548.98,634.83C553.97,628.00 553.97,628.00 542.65,628.00C536.43,628.00 531.03,627.69 530.65,627.32C530.27,626.94 531.40,625.15 533.16,623.33C534.92,621.52 536.05,619.72 535.66,619.33C535.28,618.95 526.53,620.11 516.23,621.93C505.93,623.74 491.30,626.04 483.71,627.04C476.13,628.04 462.10,629.40 452.53,630.05C441.80,630.79 424.64,631.04 407.81,630.70C388.71,630.31 375.92,629.53 365.25,628.10C356.87,626.98 343.37,624.90 335.25,623.48C327.14,622.06 315.71,619.56 309.85,617.92C303.99,616.28 295.44,613.64 290.85,612.04C286.26,610.45 279.12,607.74 275.00,606.03C270.88,604.31 263.07,600.85 257.65,598.32C252.23,595.80 245.93,593.52 243.65,593.27C241.37,593.01 236.80,593.30 233.50,593.90C230.20,594.51 224.57,596.43 221.00,598.18C217.17,600.05 212.35,603.56 209.25,606.72C205.43,610.63 204.00,612.86 204.00,614.91C204.00,616.46 204.97,618.96 206.16,620.47C207.34,621.98 212.77,626.52 218.23,630.57C225.90,636.26 229.76,638.41 235.32,640.06C239.27,641.24 246.10,643.33 250.50,644.72C254.90,646.11 259.39,647.87 260.47,648.62C261.56,649.38 263.22,650.00 264.17,650.00C265.13,650.00 267.24,648.06 268.87,645.69C270.50,643.32 273.61,639.78 275.78,637.81C277.96,635.85 281.26,633.78 283.12,633.21C284.98,632.65 288.64,631.92 291.25,631.61C293.86,631.30 296.00,631.20 296.00,631.39C296.00,631.58 293.98,634.75 291.50,638.45C289.02,642.14 287.00,645.52 287.00,645.96C287.00,646.40 287.61,647.26 288.36,647.88C289.11,648.51 295.43,650.22 302.40,651.69C315.08,654.37 315.08,654.37 314.43,661.02C313.78,667.64 313.78,667.67 316.64,668.80C318.21,669.42 323.39,670.64 328.14,671.51C332.90,672.37 341.90,673.45 348.14,673.90C354.39,674.35 366.70,674.78 375.50,674.87zM655.80,663.00C656.22,663.00 661.08,658.61 666.60,653.25C672.74,647.28 677.48,641.73 678.82,638.93C680.08,636.29 680.98,632.50 680.96,629.93C680.94,627.50 680.32,622.36 679.58,618.51C678.36,612.22 677.79,611.16 673.86,607.77C671.46,605.70 667.27,603.26 664.55,602.35C659.59,600.70 659.59,600.70 656.11,605.10C654.20,607.52 649.40,612.66 645.44,616.53C641.49,620.40 633.92,626.64 628.62,630.39C623.32,634.15 618.73,637.63 618.42,638.13C618.11,638.64 619.97,639.99 622.57,641.13C625.16,642.28 629.18,644.97 631.50,647.11C635.44,650.73 635.93,650.92 638.88,649.89C640.61,649.29 643.15,649.07 644.52,649.41C645.97,649.78 648.08,651.79 649.61,654.27C651.05,656.60 652.86,659.51 653.63,660.75C654.41,661.99 655.39,663.00 655.80,663.00zM187.50,642.65C188.05,642.48 188.81,638.97 189.19,634.86C189.56,630.75 191.00,624.39 192.38,620.72C193.76,617.06 196.04,612.36 197.45,610.28C198.86,608.20 202.34,604.13 205.18,601.23C208.13,598.22 213.10,594.60 216.74,592.81C221.80,590.32 224.79,589.57 231.10,589.20C235.49,588.95 238.95,588.39 238.79,587.96C238.63,587.53 233.78,583.28 228.00,578.52C222.22,573.77 215.70,568.93 213.50,567.79C210.28,566.10 207.66,565.70 200.00,565.68C193.79,565.67 188.43,566.27 184.52,567.42C181.23,568.40 175.83,570.43 172.52,571.95C169.21,573.47 164.30,576.67 161.61,579.07C158.84,581.53 155.69,585.61 154.37,588.46C152.88,591.66 152.02,595.36 152.01,598.60C152.00,601.41 152.52,605.23 153.16,607.10C153.80,608.97 155.75,612.75 157.49,615.50C159.24,618.25 163.44,623.31 166.83,626.75C170.22,630.19 176.03,635.24 179.74,637.99C183.46,640.73 186.95,642.83 187.50,642.65zM636.46,611.44C637.72,610.61 640.68,607.20 643.02,603.86C645.84,599.83 647.42,596.41 647.73,593.65C648.14,589.88 647.71,588.87 643.05,582.73C640.22,579.01 636.02,574.76 633.70,573.28C631.39,571.81 625.90,569.53 621.50,568.23C617.10,566.93 609.31,565.35 604.18,564.74C595.67,563.71 594.56,563.78 591.33,565.52C589.39,566.56 584.72,570.73 580.94,574.77C577.17,578.81 572.03,585.48 569.54,589.60C567.04,593.71 565.00,597.48 565.00,597.97C565.00,598.49 570.41,598.64 577.75,598.31C587.41,597.88 591.58,597.26 594.97,595.74C598.65,594.10 600.80,593.84 606.97,594.29C611.11,594.59 616.52,595.57 619.00,596.46C621.49,597.36 625.60,600.15 628.21,602.71C630.80,605.26 633.19,608.60 633.53,610.15C634.12,612.82 634.25,612.88 636.46,611.44zM426.28,611.82C437.66,611.98 439.13,611.81 439.64,610.25C439.96,609.29 441.30,606.18 442.63,603.35C443.96,600.51 445.77,597.92 446.65,597.58C447.52,597.25 453.54,596.69 460.02,596.34C471.80,595.70 471.80,595.70 473.26,598.60C474.07,600.20 475.30,603.30 475.99,605.50C476.68,607.70 477.52,609.81 477.87,610.19C478.22,610.57 483.23,610.23 489.00,609.42C496.38,608.40 499.87,607.47 500.75,606.29C501.44,605.37 502.00,603.83 502.00,602.86C502.00,601.89 502.49,598.82 503.09,596.03C503.68,593.25 504.77,590.37 505.50,589.64C506.23,588.91 511.57,587.73 517.37,587.02C527.01,585.83 528.14,585.86 530.55,587.44C532.00,588.39 534.54,592.06 536.20,595.62C538.44,600.40 539.64,601.94 540.86,601.60C541.76,601.34 544.52,600.57 547.00,599.88C549.48,599.19 552.23,598.15 553.11,597.57C554.00,596.98 559.13,590.89 564.51,584.04C569.89,577.18 575.81,569.22 577.65,566.34C579.49,563.45 581.00,560.44 581.00,559.64C581.00,558.51 578.69,558.05 570.25,557.55C564.34,557.20 558.25,556.82 556.73,556.70C553.96,556.50 553.96,556.50 556.62,552.59C559.29,548.68 559.29,548.68 546.90,549.34C540.08,549.71 529.55,550.69 523.50,551.53C517.45,552.37 507.32,553.75 501.00,554.60C493.61,555.59 477.35,556.33 455.50,556.68C428.36,557.12 417.87,556.90 403.50,555.58C393.60,554.67 379.88,553.02 373.00,551.92C366.13,550.83 357.80,549.25 354.50,548.42C351.20,547.59 344.23,545.51 339.00,543.81C333.77,542.12 325.70,539.16 321.05,537.26C313.98,534.35 311.68,533.86 306.95,534.20C302.99,534.48 298.73,535.84 292.69,538.74C287.31,541.32 282.34,544.60 279.47,547.48C276.94,550.01 274.22,553.63 273.43,555.51C272.64,557.39 272.00,561.14 272.00,563.84C272.00,566.54 272.69,570.70 273.53,573.07C274.37,575.45 275.77,578.19 276.64,579.15C277.51,580.12 281.44,582.24 285.36,583.88C289.29,585.51 297.68,588.41 304.00,590.32C310.32,592.24 316.82,593.96 318.43,594.15C321.26,594.49 321.40,594.31 322.71,588.39C323.46,585.03 325.52,579.89 327.29,576.96C329.05,574.03 330.95,571.49 331.50,571.32C332.13,571.12 332.50,575.70 332.50,583.75C332.50,594.80 332.81,597.25 334.82,602.14C337.14,607.78 337.14,607.78 344.82,608.97C349.04,609.63 356.51,610.42 361.40,610.73C367.75,611.13 370.10,610.98 369.62,610.19C369.25,609.59 369.82,604.78 370.90,599.51C372.03,593.95 373.97,588.02 375.51,585.40C376.96,582.91 378.84,580.61 379.68,580.29C380.52,579.97 381.55,580.27 381.98,580.96C382.40,581.65 383.04,584.70 383.40,587.73C383.76,590.77 385.42,596.54 387.09,600.56C388.76,604.58 390.84,608.46 391.71,609.18C392.67,609.98 397.29,610.72 403.40,611.07C408.95,611.38 419.25,611.72 426.28,611.82zM154.22,574.00C154.77,574.00 156.85,572.71 158.86,571.13C160.86,569.56 164.50,567.25 166.95,566.01C169.40,564.77 173.90,562.87 176.95,561.79C180.83,560.42 186.35,559.67 195.33,559.27C206.49,558.78 208.09,558.50 207.65,557.10C207.38,556.22 205.92,552.58 204.42,549.00C202.91,545.42 200.28,537.33 198.58,531.00C195.48,519.50 195.48,519.50 189.99,517.58C185.99,516.18 181.62,515.64 173.93,515.58C164.06,515.51 162.97,515.70 157.46,518.52C154.05,520.26 150.62,522.93 149.34,524.83C148.11,526.64 146.60,530.60 145.97,533.64C145.34,536.67 144.84,542.86 144.85,547.38C144.87,553.68 145.46,557.17 147.36,562.23C148.73,565.87 150.61,570.00 151.54,571.42C152.47,572.84 153.68,574.00 154.22,574.00zM258.00,566.92C258.27,566.96 260.20,563.38 262.28,558.96C265.07,553.04 267.84,549.12 272.78,544.12C277.24,539.61 281.68,536.27 286.00,534.18C289.57,532.45 295.43,530.31 299.00,529.42C302.57,528.53 305.85,527.48 306.28,527.08C306.70,526.67 304.24,523.91 300.81,520.92C294.57,515.50 294.57,515.50 286.53,515.64C280.62,515.74 274.28,516.89 262.50,520.00C253.70,522.33 243.40,524.85 239.61,525.62C233.38,526.88 231.99,526.83 224.88,525.15C220.57,524.13 216.82,523.51 216.56,523.77C216.30,524.04 216.68,525.70 217.42,527.46C218.16,529.22 220.43,532.86 222.48,535.54C224.52,538.22 226.80,540.50 227.54,540.61C228.29,540.72 230.38,542.52 232.20,544.62C234.01,546.72 237.75,550.55 240.50,553.12C243.25,555.70 248.20,559.84 251.50,562.33C254.80,564.82 257.73,566.88 258.00,566.92zM639.50,541.63C640.05,541.47 640.64,539.97 640.80,538.30C641.06,535.69 640.35,534.60 635.80,530.75C632.89,528.27 627.81,524.53 624.52,522.44C621.23,520.35 614.03,516.52 608.52,513.92C603.01,511.32 594.23,507.83 589.00,506.15C583.77,504.48 576.80,502.43 573.50,501.60C570.20,500.78 562.10,499.22 555.50,498.14C548.90,497.06 539.91,495.89 535.53,495.53C531.15,495.17 510.90,494.48 490.53,493.98C470.16,493.49 449.68,492.60 445.00,492.00C440.32,491.40 432.27,490.05 427.10,489.00C421.93,487.95 417.23,486.63 416.66,486.06C415.93,485.33 416.49,484.10 418.47,482.04C421.12,479.27 421.18,479.01 419.41,478.39C418.36,478.02 414.24,476.39 410.25,474.77C405.76,472.94 403.00,471.24 403.00,470.31C403.00,469.48 404.53,467.27 406.40,465.40C408.80,463.00 410.71,462.00 412.90,462.00C414.60,462.00 416.00,461.55 416.00,461.00C416.00,460.45 415.13,459.13 414.06,458.06C412.99,456.99 410.47,455.80 408.46,455.43C406.45,455.05 402.23,454.97 399.09,455.26C395.83,455.55 391.17,456.89 388.25,458.37C385.43,459.80 381.86,462.63 380.31,464.66C378.23,467.39 377.52,469.40 377.59,472.42C377.64,474.67 378.63,478.64 379.78,481.25C380.94,483.86 381.44,486.00 380.90,486.00C380.36,486.00 378.22,485.13 376.14,484.07C374.07,483.01 371.76,481.41 371.01,480.51C370.26,479.61 369.39,475.86 369.07,472.19C368.76,468.51 368.05,465.53 367.50,465.57C366.95,465.62 365.49,467.15 364.25,468.98C363.01,470.81 361.49,474.15 360.88,476.40C360.27,478.66 359.74,483.20 359.71,486.50C359.68,489.80 360.44,494.85 361.40,497.72C362.41,500.76 364.98,504.99 367.54,507.83C369.96,510.52 374.80,514.59 378.29,516.86C381.78,519.14 385.17,521.00 385.82,521.00C386.56,521.00 387.00,519.22 387.00,516.18C387.00,513.53 387.68,509.09 388.50,506.30C389.33,503.52 390.66,500.69 391.47,500.03C392.62,499.07 394.21,499.26 399.17,500.98C402.61,502.17 405.75,503.35 406.16,503.60C406.56,503.85 406.25,505.86 405.47,508.07C404.23,511.60 404.25,512.67 405.63,516.80C406.49,519.38 408.03,522.85 409.04,524.50C410.06,526.15 411.82,528.07 412.96,528.77C414.10,529.47 418.74,530.93 423.27,532.01C427.80,533.10 433.08,533.99 435.02,533.99C438.53,534.00 438.55,533.98 439.67,528.06C440.29,524.79 441.95,519.61 443.35,516.56C445.89,511.00 445.89,511.00 452.19,511.01C455.66,511.02 459.48,511.29 460.68,511.61C462.37,512.06 463.36,513.83 465.03,519.34C466.23,523.26 468.07,528.17 469.12,530.24C471.04,534.00 471.04,534.00 478.36,534.00C482.39,534.00 491.88,533.70 499.46,533.34C513.24,532.68 513.24,532.68 514.74,529.09C515.57,527.12 516.74,522.69 517.33,519.25C518.41,513.00 518.41,513.00 524.10,513.00C529.41,513.00 530.01,513.25 533.05,516.70C534.83,518.74 537.28,522.68 538.49,525.45C539.70,528.23 541.20,531.74 541.82,533.25C542.95,535.99 543.00,536.00 552.89,536.00C562.83,536.00 562.83,536.00 571.84,526.29C580.86,516.57 580.86,516.57 587.18,517.86C590.66,518.57 596.11,520.31 599.31,521.74C602.91,523.34 606.60,526.01 609.01,528.75C611.15,531.18 613.42,534.75 614.06,536.69C615.22,540.18 615.27,540.21 619.36,539.40C621.64,538.94 625.53,538.60 628.01,538.63C630.48,538.66 633.86,539.41 635.51,540.30C637.15,541.19 638.95,541.79 639.50,541.63zM375.00,540.90C377.50,540.89 377.50,540.89 374.50,538.70C372.85,537.49 368.57,533.57 365.00,529.98C361.43,526.40 357.38,522.03 356.00,520.28C353.50,517.09 353.50,517.09 344.07,518.32C338.89,519.00 334.48,520.06 334.27,520.69C334.06,521.31 336.00,523.43 338.57,525.40C341.15,527.37 346.24,530.41 349.88,532.16C353.52,533.90 360.10,536.59 364.50,538.12C368.90,539.65 373.62,540.90 375.00,540.90zM677.25,540.88C677.66,540.95 678.00,540.51 678.00,539.90C678.00,539.30 676.20,535.36 674.00,531.15C671.81,526.94 668.11,521.29 665.78,518.58C663.46,515.88 657.94,510.97 653.53,507.69C649.11,504.40 643.25,500.66 640.50,499.37C637.75,498.08 634.26,497.02 632.75,497.01C631.09,497.00 630.10,496.51 630.25,495.75C630.39,495.06 628.29,493.41 625.60,492.07C622.90,490.73 618.39,489.45 615.58,489.22C611.52,488.88 609.97,489.21 607.99,490.83C606.38,492.14 605.85,493.18 606.50,493.76C607.05,494.26 611.24,495.67 615.81,496.89C622.08,498.56 625.54,500.19 629.97,503.55C633.19,506.00 637.83,510.24 640.28,512.97C642.74,515.70 646.00,520.88 647.53,524.49C649.77,529.75 650.83,531.14 652.91,531.54C654.33,531.81 657.50,532.50 659.95,533.07C662.40,533.63 667.12,535.60 670.45,537.43C673.78,539.26 676.84,540.82 677.25,540.88zM232.75,517.90C234.53,517.96 241.28,516.85 247.75,515.45C254.21,514.05 266.02,511.55 273.98,509.89C281.94,508.23 288.60,506.73 288.78,506.55C288.96,506.37 288.22,502.76 287.13,498.53C286.05,494.29 284.93,490.60 284.66,490.32C284.38,490.05 282.43,489.44 280.33,488.97C278.22,488.50 268.88,487.61 259.56,487.00C250.24,486.39 238.87,485.23 234.30,484.44C229.73,483.64 223.63,482.09 220.74,480.99C217.86,479.90 214.74,479.00 213.82,479.00C212.89,479.00 211.92,479.79 211.65,480.75C211.38,481.71 210.88,485.00 210.53,488.06C210.19,491.13 210.38,496.63 210.97,500.31C211.56,503.98 212.53,508.08 213.14,509.41C213.93,511.14 216.44,512.69 221.87,514.82C226.07,516.46 230.96,517.85 232.75,517.90zM341.81,499.86C348.12,500.00 348.12,500.00 347.31,495.25C346.87,492.64 346.50,486.90 346.50,482.50C346.50,478.10 346.81,472.81 347.19,470.75C347.70,467.97 347.53,467.00 346.56,467.00C345.83,467.00 342.21,470.22 338.50,474.15C334.77,478.10 330.66,483.68 329.31,486.63C327.86,489.79 327.00,493.29 327.19,495.23C327.47,498.20 327.86,498.56 331.50,499.11C333.70,499.44 338.34,499.78 341.81,499.86zM583.41,488.90C584.46,488.96 587.28,487.86 589.66,486.46C592.05,485.06 594.00,483.50 594.00,482.99C594.00,482.47 591.64,481.37 588.75,480.54C585.86,479.70 577.42,478.09 570.00,476.96C562.58,475.82 553.80,474.97 550.50,475.05C547.20,475.14 537.08,474.65 528.00,473.97C518.92,473.28 511.20,472.26 510.84,471.70C510.41,471.03 503.36,470.89 490.34,471.29C476.87,471.71 468.85,472.40 465.37,473.46C462.55,474.31 459.71,475.64 459.07,476.41C458.17,477.50 458.20,478.01 459.20,478.66C459.92,479.12 473.22,479.72 488.77,480.00C517.03,480.50 517.03,480.50 519.27,483.23C521.26,485.68 522.37,486.04 529.74,486.63C537.61,487.26 538.16,487.16 541.92,484.55C545.86,481.82 545.86,481.82 556.70,483.41C562.66,484.29 570.68,485.86 574.52,486.90C578.36,487.95 582.36,488.85 583.41,488.90zM109.91,480.00C109.41,480.00 109.00,478.69 109.00,477.09C109.00,475.49 109.64,470.81 110.43,466.70C111.22,462.58 113.28,456.40 115.02,452.96C116.88,449.28 120.50,444.49 123.79,441.35C126.88,438.41 128.92,436.00 128.33,436.00C127.74,436.00 123.39,435.32 118.66,434.50C113.93,433.67 107.46,431.86 104.28,430.46C101.10,429.07 94.57,425.58 89.77,422.71C84.97,419.85 81.17,417.05 81.33,416.50C81.50,415.95 84.05,414.69 87.01,413.70C89.96,412.70 95.56,411.19 99.44,410.34C103.32,409.49 113.45,408.55 121.94,408.25C137.38,407.72 137.38,407.72 134.67,405.39C133.18,404.11 129.64,402.38 126.80,401.53C123.96,400.69 118.38,400.00 114.39,400.00C110.41,400.00 103.66,399.52 99.41,398.92C95.15,398.33 89.38,396.99 86.58,395.94C83.79,394.89 76.10,391.10 69.50,387.52C62.90,383.94 54.64,380.05 51.14,378.89C44.99,376.83 44.85,376.71 46.64,374.96C47.66,373.97 52.27,370.88 56.87,368.10C61.48,365.33 67.78,362.10 70.87,360.93C73.97,359.77 79.74,358.50 83.71,358.11C87.68,357.73 91.16,357.17 91.45,356.88C91.74,356.59 90.43,353.78 88.53,350.63C85.96,346.36 85.43,344.77 86.43,344.39C87.17,344.10 91.76,344.82 96.64,345.98C101.51,347.13 107.78,349.12 110.56,350.40C113.35,351.68 117.32,354.46 119.37,356.57C121.43,358.69 125.56,365.39 128.54,371.46C132.18,378.88 136.14,385.04 140.59,390.25C144.23,394.51 147.61,398.00 148.11,398.00C148.60,398.00 148.99,396.54 148.97,394.75C148.95,392.96 148.33,385.65 147.58,378.50C146.83,371.35 145.91,364.75 145.54,363.84C145.16,362.93 140.44,359.86 135.04,357.02C129.65,354.19 122.59,349.75 119.37,347.16C116.14,344.57 112.71,340.89 111.75,338.98C110.46,336.41 110.00,333.06 110.00,326.14C110.00,319.71 110.69,314.16 112.19,308.42C113.40,303.82 114.13,299.80 113.81,299.48C113.50,299.16 108.41,297.81 102.50,296.48C96.59,295.14 89.90,292.95 87.63,291.60C85.36,290.26 81.05,286.65 78.06,283.60C75.07,280.55 72.97,277.70 73.40,277.27C73.83,276.85 80.10,276.45 87.34,276.38C94.58,276.31 100.95,276.18 101.50,276.09C102.05,276.00 101.38,275.31 100.00,274.56C98.62,273.82 93.00,272.25 87.50,271.08C80.46,269.58 76.99,268.34 75.77,266.89C74.83,265.76 73.59,263.19 73.03,261.17C72.47,259.15 72.01,254.45 72.01,250.72C72.00,246.48 72.78,241.60 74.09,237.72C75.23,234.30 78.27,227.57 80.84,222.76C83.40,217.95 85.81,214.02 86.19,214.01C86.57,214.00 88.87,216.59 91.30,219.75C93.74,222.91 97.56,228.34 99.81,231.82C102.06,235.31 104.43,240.58 105.11,243.61C106.08,247.96 106.07,251.67 105.06,261.71C103.78,274.34 103.78,274.34 110.14,280.13C113.64,283.31 116.84,285.93 117.25,285.96C117.66,285.98 118.01,277.79 118.03,267.75C118.05,251.47 118.29,248.80 120.30,243.00C121.53,239.43 124.49,233.20 126.86,229.17C129.24,225.14 134.13,217.94 137.73,213.17C141.34,208.40 144.34,203.84 144.39,203.04C144.47,202.03 143.00,201.35 139.65,200.86C136.98,200.46 134.11,199.87 133.27,199.55C132.09,199.10 131.89,198.03 132.41,194.73C132.77,192.41 135.83,184.96 139.21,178.20C142.60,171.43 145.67,165.70 146.05,165.47C146.43,165.23 149.62,168.48 153.12,172.68C156.63,176.88 161.86,183.20 164.75,186.72C167.64,190.25 170.00,193.80 170.00,194.62C170.00,195.43 168.31,196.77 166.25,197.58C164.19,198.40 160.35,200.03 157.73,201.22C155.10,202.40 153.08,203.62 153.23,203.93C153.39,204.24 155.65,208.80 158.26,214.05C160.87,219.30 164.09,227.40 165.43,232.05C166.76,236.70 168.41,243.43 169.09,247.00C170.25,253.12 170.77,253.97 177.95,261.50C182.15,265.90 187.67,271.98 190.21,275.00C192.76,278.02 199.49,285.24 205.17,291.04C210.85,296.84 222.25,307.65 230.50,315.07C238.75,322.49 247.53,329.94 250.00,331.62C252.47,333.31 258.46,336.83 263.30,339.45C268.14,342.07 271.96,344.62 271.79,345.12C271.63,345.62 266.32,350.07 260.00,355.00C253.67,359.94 245.83,365.41 242.57,367.15C239.31,368.89 230.98,372.54 224.07,375.27C211.88,380.09 211.09,380.26 198.00,380.94C190.57,381.33 184.33,381.51 184.12,381.36C183.91,381.20 183.21,378.47 182.58,375.28C181.80,371.41 180.94,369.50 179.96,369.50C179.16,369.50 175.48,374.00 171.80,379.50C168.11,385.00 164.80,390.96 164.44,392.74C164.08,394.53 164.03,396.65 164.35,397.46C164.80,398.64 166.66,398.04 173.71,394.44C178.54,391.97 184.92,389.51 187.89,388.97C190.85,388.44 198.27,388.01 204.39,388.02C210.50,388.02 216.14,388.43 216.91,388.93C218.02,389.63 216.94,391.34 211.91,396.84C208.39,400.71 202.63,406.17 199.13,408.98C195.62,411.79 190.67,415.13 188.13,416.41C185.58,417.68 179.82,419.94 175.32,421.42C170.82,422.90 165.42,425.38 163.32,426.92C161.22,428.46 155.68,433.50 151.00,438.14C146.32,442.77 135.37,454.08 126.66,463.28C117.95,472.48 110.41,480.00 109.91,480.00zM274.50,478.14C281.10,477.91 286.64,477.61 286.81,477.47C286.98,477.33 288.49,473.67 290.17,469.35C291.84,465.03 293.43,460.31 293.70,458.86C294.16,456.43 293.74,456.05 288.61,454.13C285.54,452.98 274.03,450.25 263.04,448.06C252.04,445.86 241.57,443.32 239.77,442.40C237.97,441.47 235.21,439.64 233.64,438.33C231.35,436.42 230.49,436.18 229.33,437.14C228.54,437.80 226.13,441.30 223.97,444.93C221.82,448.56 218.86,454.76 217.40,458.71C215.94,462.66 215.01,466.58 215.33,467.41C215.65,468.25 219.00,470.49 222.78,472.39C228.29,475.17 231.59,476.06 239.57,476.93C245.03,477.53 252.43,478.14 256.00,478.29C259.57,478.43 267.90,478.37 274.50,478.14zM301.50,446.90C302.05,446.95 305.75,443.79 309.73,439.86C313.70,435.94 316.73,432.37 316.45,431.92C316.17,431.47 309.55,429.02 301.72,426.48C293.90,423.94 282.96,420.09 277.42,417.92C271.56,415.63 265.63,412.52 263.26,410.49C261.02,408.57 258.41,407.00 257.48,407.00C256.54,407.00 252.24,410.43 247.93,414.63C243.62,418.82 238.90,423.98 237.43,426.10C235.97,428.21 235.00,430.56 235.29,431.32C235.58,432.08 237.77,433.60 240.16,434.70C242.55,435.80 247.43,437.41 251.00,438.28C254.57,439.16 264.48,440.81 273.00,441.97C281.52,443.12 291.20,444.68 294.50,445.43C297.80,446.18 300.95,446.84 301.50,446.90zM412.53,439.92C413.10,439.96 416.14,438.39 419.28,436.42C422.43,434.46 425.00,432.44 425.00,431.95C425.00,431.46 422.46,430.32 419.35,429.41C416.04,428.45 411.90,427.98 409.32,428.27C406.91,428.54 402.85,429.84 400.30,431.15C397.74,432.46 395.49,434.04 395.28,434.65C395.06,435.32 397.02,436.03 400.21,436.45C403.12,436.82 406.85,437.74 408.50,438.49C410.15,439.23 411.96,439.87 412.53,439.92zM498.13,429.00C498.76,429.00 502.18,428.46 505.74,427.81C509.30,427.15 512.43,426.04 512.70,425.33C512.97,424.62 512.49,420.57 511.62,416.33C510.76,412.09 510.23,408.44 510.44,408.23C510.65,408.01 514.25,406.96 518.43,405.89C523.62,404.56 526.58,404.25 527.76,404.89C528.72,405.42 531.28,407.68 533.45,409.92C535.63,412.16 538.01,414.00 538.74,414.00C539.48,414.00 541.88,413.08 544.09,411.95C546.29,410.83 548.35,409.25 548.66,408.44C548.98,407.61 547.47,404.70 545.16,401.71C542.92,398.81 540.04,395.45 538.76,394.25C536.43,392.06 536.43,392.06 525.96,395.61C520.21,397.57 513.02,399.59 510.00,400.09C506.98,400.59 494.15,402.34 481.50,403.98C468.85,405.61 455.80,407.66 452.50,408.52C449.20,409.39 445.87,410.71 445.11,411.47C443.92,412.65 444.29,412.96 447.61,413.54C449.75,413.91 453.75,415.42 456.50,416.89C461.33,419.47 461.78,419.53 469.49,418.53C475.69,417.73 477.55,417.12 477.80,415.80C478.02,414.65 479.52,413.90 482.46,413.45C484.85,413.10 487.72,413.09 488.85,413.45C490.04,413.83 492.17,416.66 493.95,420.21C495.63,423.57 497.00,426.92 497.00,427.66C497.00,428.40 497.51,429.00 498.13,429.00zM433.50,427.89C434.60,427.85 439.07,426.62 443.42,425.16C447.78,423.70 451.52,421.96 451.74,421.31C451.95,420.65 450.64,419.33 448.81,418.36C446.52,417.15 443.34,416.63 438.50,416.67C434.65,416.70 429.48,417.26 427.00,417.91C424.52,418.56 421.26,419.58 419.75,420.17C418.24,420.76 417.00,421.60 417.00,422.04C417.00,422.48 418.41,423.15 420.13,423.53C421.86,423.91 425.12,425.06 427.38,426.09C429.65,427.11 432.40,427.93 433.50,427.89zM328.02,422.89C329.67,422.96 333.89,420.56 340.27,415.92C345.62,412.02 350.00,408.40 350.00,407.88C350.00,407.36 348.08,406.11 345.74,405.10C343.40,404.10 334.07,400.92 325.00,398.03C315.93,395.14 305.94,391.48 302.80,389.90C299.66,388.31 295.55,385.66 293.66,384.01C291.78,382.35 289.66,381.00 288.96,381.00C288.25,381.00 284.48,383.40 280.58,386.34C276.68,389.28 271.02,393.95 268.01,396.71C263.11,401.23 262.69,401.92 263.96,403.45C264.74,404.39 267.88,406.41 270.94,407.94C274.00,409.47 279.20,411.64 282.50,412.76C285.80,413.89 294.35,416.03 301.50,417.53C308.65,419.03 316.98,420.82 320.00,421.52C323.02,422.21 326.63,422.83 328.02,422.89zM556.98,401.00C557.34,401.00 558.77,399.76 560.16,398.25C561.55,396.74 563.44,394.39 564.35,393.03C565.26,391.67 566.00,389.74 566.00,388.74C566.00,387.48 564.04,385.99 559.75,383.96C556.31,382.33 552.30,381.00 550.83,381.00C549.02,381.00 546.38,382.63 542.58,386.10C539.51,388.90 537.22,391.55 537.48,391.98C537.75,392.40 540.11,393.29 542.73,393.95C545.35,394.61 549.49,396.47 551.92,398.07C554.35,399.68 556.63,401.00 556.98,401.00zM374.48,396.61C376.67,395.45 382.04,391.00 386.41,386.73C390.96,382.27 393.96,378.60 393.43,378.13C392.92,377.68 386.43,375.24 379.00,372.70C371.57,370.17 360.55,366.69 354.50,364.98C348.45,363.28 341.48,360.71 339.00,359.28C336.52,357.85 331.68,355.15 328.24,353.27C324.80,351.39 321.36,350.00 320.61,350.18C319.86,350.36 315.25,354.93 310.37,360.35C305.49,365.77 300.17,371.79 298.55,373.73C295.59,377.26 295.59,377.26 298.41,379.51C299.95,380.74 305.33,383.16 310.36,384.89C315.39,386.61 326.02,389.16 334.00,390.55C341.98,391.94 353.45,394.35 359.50,395.90C370.50,398.72 370.50,398.72 374.48,396.61zM115.25,384.99C115.66,385.00 116.00,383.70 116.00,382.11C116.00,380.52 115.29,375.68 114.43,371.36C113.27,365.51 112.23,362.92 110.38,361.25C108.24,359.32 106.78,359.00 100.00,359.00C95.67,359.00 91.85,359.44 91.52,359.97C91.19,360.50 91.57,362.19 92.37,363.72C93.17,365.25 97.14,369.78 101.21,373.80C105.27,377.81 109.92,381.97 111.55,383.04C113.17,384.11 114.84,384.99 115.25,384.99zM568.27,376.92C570.33,376.98 571.29,376.37 571.96,374.59C572.47,373.27 573.18,369.54 573.55,366.30C574.06,361.79 573.88,360.14 572.78,359.23C571.99,358.58 568.05,357.57 564.02,357.00C559.99,356.43 555.93,356.20 555.00,356.50C553.59,356.95 553.33,358.37 553.41,365.26C553.50,373.49 553.50,373.49 559.50,375.16C562.80,376.09 566.75,376.88 568.27,376.92zM407.17,366.91C407.53,366.96 409.14,365.31 410.74,363.25C412.34,361.19 416.21,355.55 419.33,350.72C422.45,345.88 425.00,341.29 425.00,340.50C425.00,339.55 420.28,337.56 410.75,334.48C402.91,331.96 390.43,328.36 383.00,326.49C375.57,324.63 368.15,322.67 366.50,322.15C364.85,321.64 359.76,319.81 355.18,318.11C350.61,316.40 345.37,315.00 343.54,315.00C340.66,315.00 339.80,315.64 337.19,319.75C335.53,322.36 332.27,328.38 329.93,333.12C327.53,337.99 325.95,342.43 326.30,343.33C326.63,344.20 329.06,346.01 331.70,347.35C334.34,348.68 339.48,350.69 343.12,351.81C346.76,352.94 359.81,355.91 372.12,358.42C384.43,360.93 397.20,363.85 400.50,364.90C403.80,365.96 406.80,366.86 407.17,366.91zM560.67,348.00C568.00,348.00 568.00,348.00 568.00,342.93C568.00,340.15 567.57,337.07 567.05,336.09C566.52,335.10 563.59,333.51 560.53,332.55C557.46,331.59 554.29,331.06 553.48,331.37C552.36,331.80 552.00,333.72 552.00,339.30C552.00,343.35 552.30,346.97 552.67,347.33C553.03,347.70 556.63,348.00 560.67,348.00zM565.50,324.76C573.50,324.50 573.50,324.50 573.80,321.45C573.99,319.47 573.47,317.85 572.30,316.84C571.31,315.99 568.09,314.00 565.14,312.43C560.07,309.72 559.72,309.66 558.47,311.37C557.75,312.35 556.62,315.43 555.95,318.19C554.96,322.35 554.99,323.38 556.12,324.12C556.88,324.61 561.10,324.90 565.50,324.76zM428.70,323.91C430.09,323.97 431.77,322.80 433.27,320.75C434.58,318.96 437.59,314.22 439.96,310.22C442.33,306.21 444.10,302.79 443.88,302.62C443.67,302.44 438.76,301.31 432.96,300.11C427.17,298.91 418.28,297.49 413.22,296.97C404.25,296.04 403.81,296.10 396.44,299.02C392.28,300.67 385.64,302.51 381.69,303.11C377.74,303.70 373.04,304.89 371.25,305.75C369.46,306.61 368.00,307.90 368.00,308.62C368.00,309.34 368.82,310.37 369.82,310.91C370.83,311.44 377.24,313.31 384.07,315.05C390.91,316.79 403.25,319.48 411.50,321.02C419.75,322.57 427.49,323.87 428.70,323.91zM675.23,315.36C675.65,315.10 676.00,313.11 676.00,310.94C676.00,308.77 675.73,307.00 675.41,307.00C675.09,307.00 673.98,308.01 672.94,309.25C671.91,310.49 671.05,312.04 671.03,312.70C671.01,313.36 671.78,314.34 672.73,314.87C673.68,315.40 674.80,315.62 675.23,315.36zM582.40,311.00C583.10,311.00 584.17,309.93 584.76,308.62C585.74,306.48 585.33,305.71 580.80,301.08C578.02,298.24 575.91,295.77 576.12,295.58C576.33,295.39 578.25,294.05 580.39,292.62C582.53,291.18 585.53,290.00 587.06,290.00C589.10,290.00 590.76,291.12 593.37,294.25C596.90,298.50 596.90,298.50 601.53,296.00C604.08,294.62 606.42,293.10 606.73,292.60C607.04,292.11 606.22,289.73 604.90,287.32C602.87,283.60 602.73,282.79 603.95,282.03C604.75,281.54 607.59,280.83 610.27,280.46C612.94,280.10 615.43,280.10 615.81,280.47C616.18,280.85 616.94,283.03 617.49,285.33C618.49,289.46 618.55,289.50 622.99,289.50C627.49,289.50 627.49,289.50 628.54,284.50C629.57,279.64 629.71,279.49 633.42,279.18C637.25,278.86 637.25,278.86 636.57,283.41C635.91,287.78 636.02,288.04 639.19,289.98C641.01,291.08 643.02,291.99 643.65,292.00C644.28,292.00 646.31,290.53 648.15,288.73C649.99,286.93 652.62,284.69 654.00,283.76C656.42,282.11 656.44,282.00 654.62,280.57C653.58,279.75 650.43,278.64 647.62,278.10C644.80,277.56 638.20,276.35 632.95,275.40C624.69,273.92 622.13,273.85 613.95,274.90C608.75,275.56 601.42,277.18 597.67,278.48C593.91,279.79 588.35,282.35 585.32,284.18C582.29,286.01 576.68,290.13 572.84,293.35C569.01,296.57 565.43,300.38 564.88,301.82C564.11,303.84 564.22,304.69 565.37,305.53C566.18,306.12 569.84,307.24 573.49,308.00C577.13,308.76 580.34,309.75 580.62,310.19C580.89,310.64 581.69,311.00 582.40,311.00zM684.50,308.00C685.29,308.00 685.71,307.40 685.43,306.67C685.15,305.94 685.41,304.06 686.00,302.50C686.85,300.25 686.77,299.35 685.62,298.19C684.81,297.39 683.45,297.00 682.58,297.33C681.61,297.70 681.00,299.14 681.00,301.03C681.00,302.74 681.47,305.00 682.04,306.07C682.60,307.13 683.72,308.00 684.50,308.00zM656.77,303.16C657.11,300.06 657.33,299.87 659.82,300.59C661.29,301.02 663.83,301.35 665.47,301.32C667.62,301.28 669.33,300.23 671.69,297.49C674.95,293.72 674.95,293.72 672.23,290.47C670.73,288.69 668.47,286.72 667.20,286.11C665.94,285.50 664.11,285.00 663.14,285.00C662.17,285.00 660.19,286.24 658.75,287.75C657.31,289.26 655.65,291.77 655.06,293.32C654.48,294.86 654.00,297.20 654.00,298.50C654.00,299.80 654.54,302.14 655.20,303.68C656.41,306.50 656.41,306.50 656.77,303.16zM278.00,293.46C285.43,293.24 296.68,292.17 303.02,291.08C309.36,290.00 319.35,287.54 325.23,285.61C331.11,283.68 341.00,279.64 347.21,276.62C353.42,273.60 361.43,270.15 365.00,268.96C370.58,267.09 374.89,266.66 395.50,265.97C408.70,265.53 423.77,264.67 429.00,264.06C434.23,263.45 442.55,262.25 447.50,261.40C452.45,260.55 460.32,258.97 465.00,257.89C469.68,256.81 478.61,254.34 484.86,252.39C491.12,250.45 500.30,247.07 505.28,244.88C510.26,242.68 517.52,239.04 521.42,236.78C525.31,234.52 532.03,229.96 536.35,226.64C540.66,223.32 547.04,217.28 550.51,213.22C553.99,209.17 558.41,202.84 560.34,199.17C562.26,195.50 564.98,189.45 566.38,185.72C567.78,182.00 569.60,175.70 570.42,171.72C571.23,167.75 572.20,160.45 572.57,155.50C572.99,149.74 572.82,144.97 572.08,142.25C571.42,139.82 570.32,138.00 569.52,138.00C568.75,138.00 567.85,138.44 567.52,138.97C567.18,139.51 566.25,143.41 565.44,147.64C564.63,151.87 563.47,155.93 562.86,156.67C562.18,157.49 559.58,158.01 556.13,158.01C553.03,158.02 549.55,158.28 548.39,158.59C547.23,158.91 545.29,160.91 544.09,163.05C542.89,165.19 540.13,169.19 537.95,171.95C535.77,174.70 532.60,177.67 530.90,178.55C529.20,179.43 527.57,179.91 527.28,179.61C526.98,179.31 527.68,176.69 528.84,173.79C529.99,170.88 531.43,166.45 532.04,163.94C532.65,161.43 533.00,157.62 532.82,155.49C532.50,151.60 532.50,151.60 527.22,156.30C524.31,158.88 521.54,161.00 521.06,161.00C520.58,161.00 517.99,163.81 515.31,167.25C512.62,170.69 509.39,174.98 508.12,176.79C506.16,179.57 506.02,180.31 507.14,181.67C508.30,183.06 507.81,183.85 503.49,187.66C500.74,190.08 494.64,194.04 489.93,196.48C485.22,198.91 478.02,201.82 473.93,202.94C469.84,204.05 461.32,205.42 455.00,205.98C448.68,206.53 436.52,206.73 428.00,206.43C419.48,206.12 411.40,205.65 410.05,205.37C407.78,204.90 407.95,204.66 412.40,202.06C417.19,199.26 417.19,199.26 413.85,198.70C412.01,198.39 408.56,197.83 406.18,197.47C403.81,197.10 402.09,196.58 402.36,196.31C402.63,196.04 406.81,194.93 411.64,193.86C416.48,192.78 420.52,191.81 420.63,191.70C420.74,191.59 414.01,191.50 405.67,191.50C394.13,191.50 388.76,191.05 383.22,189.63C379.21,188.61 375.03,187.03 373.92,186.13C372.04,184.61 372.93,184.50 387.70,184.48C401.12,184.47 404.69,184.12 411.44,182.18C415.81,180.93 422.97,178.04 427.34,175.76C431.72,173.48 437.63,169.34 440.47,166.56C443.32,163.78 446.89,159.62 448.41,157.32C449.93,155.02 451.02,152.35 450.84,151.38C450.55,149.89 449.92,150.13 446.75,152.92C444.57,154.83 443.00,155.64 443.01,154.85C443.02,154.11 443.69,151.29 444.51,148.59C445.33,145.89 446.00,139.86 446.00,135.19C446.00,127.02 446.07,126.75 447.83,128.35C448.83,129.26 449.95,130.00 450.32,130.00C450.68,130.00 451.88,129.22 452.99,128.28C454.09,127.33 455.00,125.78 455.00,124.84C455.00,123.89 455.42,122.86 455.93,122.54C456.44,122.23 457.14,122.42 457.49,122.98C457.84,123.54 458.54,124.00 459.06,124.00C459.58,124.00 460.00,123.21 460.01,122.25C460.01,121.29 460.52,118.70 461.15,116.50C461.77,114.30 462.48,113.06 462.72,113.75C462.97,114.44 463.87,115.00 464.72,115.00C466.01,115.00 466.19,114.01 465.75,109.20C465.46,106.01 464.18,100.97 462.91,98.01C461.63,95.05 458.40,89.90 455.73,86.57C453.06,83.23 448.77,78.78 446.21,76.66C443.65,74.55 439.87,71.95 437.80,70.90C435.73,69.84 431.00,68.27 427.27,67.39C421.92,66.14 416.72,65.90 402.50,66.27C387.82,66.65 383.30,67.12 378.00,68.84C374.43,70.00 367.92,72.99 363.54,75.50C359.16,78.00 352.20,82.62 348.07,85.77C343.94,88.92 336.49,95.43 331.53,100.22C323.50,107.98 322.00,109.01 318.00,109.50C315.52,109.81 312.42,110.38 311.10,110.78C309.63,111.22 306.58,114.61 303.25,119.50C300.26,123.90 296.39,129.00 294.65,130.84C292.92,132.67 286.32,137.24 280.00,141.00C273.68,144.75 264.55,150.80 259.72,154.45C254.90,158.10 245.67,166.13 239.21,172.30C232.76,178.46 222.00,188.33 215.31,194.22C208.62,200.12 202.01,206.43 200.63,208.24C199.25,210.05 197.55,213.66 196.85,216.26C195.83,220.08 195.84,222.55 196.89,229.24C197.61,233.78 198.99,242.75 199.96,249.18C200.97,255.81 202.55,262.29 203.63,264.18C204.85,266.32 207.47,268.48 211.02,270.26C214.74,272.12 219.42,273.37 225.51,274.13C230.81,274.79 240.14,275.00 248.25,274.64C255.81,274.31 266.59,273.10 272.20,271.96C277.81,270.82 286.17,268.32 290.77,266.42C295.38,264.51 302.82,261.10 307.32,258.84C311.82,256.58 320.45,251.57 326.50,247.72C332.55,243.86 340.99,239.01 345.27,236.94C349.77,234.75 356.07,232.66 360.27,231.95C365.11,231.13 372.46,230.93 382.50,231.35C390.75,231.69 404.93,231.54 414.00,231.01C423.07,230.47 435.45,229.35 441.50,228.51C447.55,227.67 458.35,225.81 465.50,224.39C472.65,222.97 482.76,220.22 487.96,218.29C493.16,216.35 503.51,211.74 510.96,208.04C518.41,204.34 528.77,198.93 534.00,196.02C539.23,193.11 545.07,189.66 546.98,188.36C548.90,187.06 551.03,186.00 551.73,186.00C552.43,186.00 553.00,186.25 553.00,186.55C553.00,186.85 552.35,188.35 551.57,189.87C550.78,191.40 547.17,195.42 543.55,198.81C539.93,202.19 532.47,207.62 526.98,210.87C521.49,214.11 514.64,217.67 511.75,218.77C508.86,219.86 500.43,222.79 493.00,225.28C485.57,227.76 475.77,231.18 471.21,232.88C466.64,234.59 459.22,236.92 454.71,238.07C450.19,239.22 445.82,240.73 445.00,241.43C444.18,242.12 440.80,243.41 437.50,244.29C434.20,245.17 427.74,246.59 423.14,247.45C418.54,248.30 409.99,249.01 404.14,249.01C398.29,249.02 387.20,248.51 379.50,247.87C368.47,246.96 364.23,246.98 359.50,247.97C355.86,248.74 348.18,252.03 340.00,256.33C332.57,260.23 322.68,265.31 318.00,267.62C313.32,269.94 301.62,274.31 292.00,277.33C282.38,280.36 270.98,283.32 266.68,283.92C262.38,284.51 254.64,285.00 249.49,285.00C243.95,285.00 239.85,285.43 239.46,286.06C239.10,286.65 239.57,287.97 240.51,289.01C241.44,290.04 243.62,291.20 245.35,291.59C247.08,291.97 252.10,292.64 256.50,293.07C260.90,293.50 270.57,293.68 278.00,293.46zM217.11,260.29C216.60,260.80 215.19,259.76 213.75,257.83C212.39,256.00 210.76,252.97 210.14,251.10C209.51,249.23 209.00,246.24 209.00,244.44C209.00,241.73 209.32,241.27 210.92,241.69C211.97,241.96 213.31,243.39 213.90,244.85C214.48,246.31 215.64,250.18 216.48,253.45C217.36,256.89 217.62,259.78 217.11,260.29zM252.18,251.95C250.36,252.47 248.25,252.30 246.32,251.49C244.65,250.79 242.25,248.75 240.97,246.95C239.46,244.84 238.48,241.77 238.19,238.29C237.75,233.00 237.82,232.83 242.21,228.63C245.06,225.90 248.35,223.88 251.34,223.05C253.91,222.33 257.84,221.98 260.08,222.28C262.32,222.58 265.07,223.66 266.18,224.66C267.84,226.16 268.13,227.41 267.79,231.52C267.50,235.06 266.39,238.03 264.07,241.53C262.26,244.26 259.48,247.54 257.90,248.82C256.32,250.09 253.74,251.50 252.18,251.95zM251.75,243.98C252.16,243.97 254.19,240.84 256.25,237.02C258.31,233.20 260.00,229.15 260.00,228.03C260.00,226.92 259.58,226.00 259.08,226.00C258.57,226.00 257.61,227.69 256.94,229.75C256.27,231.81 254.66,235.62 253.36,238.22C252.06,240.81 251.00,243.17 251.00,243.47C251.00,243.76 251.34,243.99 251.75,243.98zM302.57,219.00C302.26,219.00 302.00,218.08 302.00,216.95C302.00,215.83 303.15,213.83 304.56,212.53C305.98,211.22 308.44,209.69 310.04,209.13C311.95,208.47 313.17,208.46 313.56,209.10C313.90,209.64 313.60,210.78 312.89,211.63C312.19,212.48 309.71,214.48 307.38,216.08C305.05,217.69 302.88,219.00 302.57,219.00zM316.47,186.00C316.21,186.00 316.02,185.44 316.04,184.75C316.06,184.06 318.48,179.90 321.43,175.50C324.38,171.10 326.41,167.36 325.95,167.19C325.49,167.01 324.15,167.39 322.97,168.02C321.79,168.65 320.65,168.98 320.43,168.76C320.21,168.55 322.52,164.12 325.56,158.93C328.61,153.74 332.70,146.12 334.66,142.00C336.61,137.88 340.21,130.25 342.66,125.06C345.10,119.86 349.07,112.86 351.47,109.49C353.87,106.12 358.34,101.44 361.39,99.08C364.45,96.73 369.55,93.73 372.72,92.42C376.58,90.84 380.51,90.04 384.57,90.02C387.91,90.01 393.08,90.72 396.07,91.60C399.06,92.48 404.20,94.82 407.50,96.81C410.80,98.80 415.68,102.45 418.34,104.93C421.00,107.41 423.81,110.67 424.59,112.17C425.36,113.67 426.00,116.05 426.00,117.45C426.00,119.08 425.44,120.00 424.45,120.00C423.20,120.00 423.05,120.71 423.65,123.75C424.06,125.81 424.40,130.88 424.40,135.00C424.40,139.68 423.71,144.57 422.54,148.00C421.12,152.22 419.11,155.08 413.94,160.26C409.42,164.78 405.09,167.99 400.85,169.98C397.36,171.60 391.26,173.49 387.30,174.16C381.57,175.14 377.99,175.13 369.72,174.12C361.67,173.14 357.89,173.11 352.92,174.01C349.39,174.65 342.37,176.50 337.32,178.11C332.27,179.73 325.61,182.16 322.54,183.53C319.46,184.89 316.73,186.00 316.47,186.00zM476.59,183.59C478.19,183.20 481.52,181.92 484.00,180.74C486.48,179.56 490.77,176.33 493.55,173.55C496.33,170.77 499.60,166.41 500.83,163.87C502.06,161.32 503.33,156.98 503.66,154.23C503.99,151.45 503.70,146.92 503.02,144.07C502.28,141.00 500.07,136.62 497.54,133.21C495.21,130.07 491.88,126.69 490.15,125.69C487.82,124.35 487.00,124.23 487.01,125.19C487.02,125.91 487.69,128.71 488.51,131.41C489.33,134.11 489.99,137.93 489.97,139.91C489.95,141.88 489.16,145.75 488.20,148.50C487.25,151.25 483.63,157.24 480.15,161.81C476.66,166.38 471.05,173.09 467.66,176.71C461.50,183.30 461.50,183.30 466.50,182.77C469.25,182.48 472.29,181.91 473.26,181.51C474.66,180.93 474.88,181.14 474.35,182.54C473.76,184.06 474.07,184.20 476.59,183.59zM381.18,165.96C384.31,165.98 388.14,165.52 389.68,164.94C391.23,164.35 394.00,162.44 395.84,160.69C397.68,158.93 400.37,155.25 401.82,152.50C404.11,148.16 404.46,146.29 404.48,138.33C404.50,130.55 404.18,128.72 402.40,126.33C400.89,124.29 399.28,123.41 396.65,123.19C394.64,123.02 393.01,123.02 393.01,123.19C393.02,123.36 393.69,125.97 394.50,129.00C395.31,132.03 395.98,137.65 395.98,141.50C395.99,145.35 395.49,150.28 394.89,152.45C394.29,154.63 392.35,157.85 390.58,159.62C388.63,161.57 385.83,163.13 383.50,163.57C381.21,163.99 377.67,163.78 374.77,163.04C372.08,162.35 369.62,162.05 369.29,162.38C368.96,162.70 370.23,163.63 372.10,164.45C373.97,165.26 378.06,165.94 381.18,165.96zM371.48,138.66C372.02,138.49 373.04,136.36 373.76,133.92C374.47,131.49 374.93,128.15 374.78,126.51C374.59,124.54 373.87,123.40 372.67,123.17C371.66,122.98 369.76,123.09 368.43,123.43C367.11,123.76 365.29,125.16 364.39,126.53C362.82,128.92 362.87,129.21 365.62,133.27C367.20,135.59 368.95,137.83 369.50,138.23C370.05,138.64 370.94,138.83 371.48,138.66zM539.84,119.72C541.30,119.45 546.55,118.22 551.50,116.98C556.45,115.73 561.51,114.34 562.75,113.88C564.00,113.41 565.00,112.20 565.00,111.14C565.00,110.09 563.21,105.69 561.02,101.37C558.84,97.04 555.25,91.59 553.06,89.25C550.87,86.91 548.62,85.00 548.05,85.00C547.49,85.00 546.33,86.67 545.48,88.71C544.62,90.76 543.15,93.30 542.21,94.37C541.27,95.43 537.46,98.28 533.75,100.70C530.04,103.12 527.00,105.37 527.00,105.70C527.00,106.02 528.48,108.14 530.29,110.40C532.09,112.65 534.38,115.78 535.38,117.35C536.81,119.62 537.72,120.10 539.84,119.72zM374.81,118.52C383.75,118.18 386.68,117.65 391.81,115.42C395.21,113.95 398.00,112.43 398.00,112.04C398.00,111.66 396.99,110.42 395.75,109.29C394.51,108.16 392.06,106.51 390.30,105.62C388.54,104.73 385.16,104.01 382.80,104.02C380.22,104.03 376.92,104.93 374.55,106.27C372.37,107.50 369.11,110.46 367.30,112.83C365.48,115.21 364.00,117.56 364.00,118.04C364.00,118.53 368.86,118.75 374.81,118.52zM515.64,97.92C516.26,97.97 520.43,93.54 524.89,88.08C529.35,82.62 533.00,77.26 533.00,76.16C533.00,74.95 530.62,72.19 526.91,69.09C523.56,66.29 518.05,62.46 514.66,60.57C511.27,58.68 507.28,56.84 505.78,56.47C503.87,56.00 502.05,56.42 499.66,57.90C496.88,59.62 494.65,60.00 487.38,60.01C480.18,60.02 477.56,60.46 473.50,62.36C470.75,63.65 467.04,66.07 465.25,67.75C463.04,69.83 462.00,71.73 462.00,73.69C462.00,75.77 462.76,77.02 464.77,78.20C466.29,79.10 469.66,81.71 472.26,83.99C476.80,88.00 477.32,88.18 486.24,89.04C491.33,89.53 497.75,90.62 500.50,91.48C503.25,92.33 507.52,94.11 510.00,95.43C512.48,96.76 515.01,97.88 515.64,97.92zM335.10,86.96C335.43,86.98 337.45,85.70 339.60,84.11C341.74,82.52 346.43,78.70 350.00,75.62C353.57,72.54 359.43,68.48 363.00,66.60C366.57,64.71 372.51,62.20 376.20,61.02C382.90,58.86 382.90,58.86 383.56,54.43C383.93,52.00 385.75,47.48 387.61,44.38C389.48,41.29 391.00,38.59 391.00,38.38C391.00,38.17 389.76,38.00 388.25,38.00C386.73,38.00 382.36,38.90 378.53,39.99C374.70,41.09 368.26,43.55 364.21,45.48C360.16,47.40 352.94,51.52 348.17,54.63C343.40,57.74 336.18,62.99 332.12,66.31C328.06,69.63 323.45,74.38 321.87,76.87C320.29,79.36 319.00,82.21 319.00,83.21C319.00,84.75 319.79,84.49 324.11,81.52C326.92,79.58 330.13,78.00 331.23,78.00C332.91,78.00 333.15,78.51 332.76,81.20C332.50,82.95 332.79,84.96 333.39,85.66C334.00,86.35 334.77,86.94 335.10,86.96zM437.98,60.64C438.80,60.55 441.19,57.33 443.29,53.49C445.39,49.65 448.89,44.39 451.07,41.80C455.03,37.10 455.03,37.10 451.27,36.05C449.19,35.47 443.29,34.49 438.15,33.87C433.01,33.26 425.24,32.96 420.89,33.21C413.95,33.61 412.51,34.04 409.24,36.67C407.18,38.33 404.48,41.50 403.23,43.74C401.98,45.97 400.86,49.53 400.73,51.65C400.50,55.50 400.50,55.50 411.00,56.26C416.77,56.68 424.88,57.88 429.00,58.91C433.12,59.95 437.17,60.73 437.98,60.64z" />

</svg>
